<svg width="320" height="320" viewBox="0 0 320 320" fill="none" xmlns="http://www.w3.org/2000/svg">
<rect x="50" y="50" width="220" height="220" rx="110" fill="#8445F1"/>
<path d="M226.59 161.682L202.269 142.248C202.169 142.157 202.089 142.046 202.034 141.922C201.979 141.798 201.951 141.664 201.951 141.529C201.951 141.394 201.979 141.26 202.034 141.136C202.089 141.012 202.169 140.902 202.269 140.811L223.823 123.639C225.691 122.13 225.584 120.729 225.332 120.047C225.081 119.364 224.326 118.179 221.919 118.179H187.792V112.79C187.792 112.08 187.651 111.376 187.378 110.72C187.105 110.064 186.705 109.468 186.201 108.967C185.697 108.466 185.099 108.07 184.441 107.801C183.783 107.533 183.078 107.397 182.368 107.402H160.813C160.337 107.402 159.88 107.591 159.543 107.928C159.206 108.265 159.017 108.721 159.017 109.198V152.306C159.017 152.783 159.206 153.239 159.543 153.576C159.88 153.913 160.337 154.102 160.813 154.102H176.009C173.558 155.381 171.591 157.425 170.405 159.922C170.182 160.471 170.098 161.066 170.16 161.656C170.223 162.245 170.431 162.809 170.764 163.299C171.094 163.786 171.538 164.185 172.058 164.461C172.578 164.737 173.157 164.88 173.746 164.879H225.476C225.847 164.877 226.208 164.76 226.51 164.544C226.812 164.329 227.04 164.025 227.162 163.674C227.284 163.324 227.294 162.944 227.192 162.587C227.089 162.231 226.879 161.914 226.59 161.682ZM148.24 105.605C146.811 105.605 145.44 106.173 144.43 107.184C143.419 108.194 142.852 109.565 142.852 110.994V186.434C142.852 187.863 143.419 189.233 144.43 190.244C145.44 191.254 146.811 191.822 148.24 191.822C149.669 191.822 151.04 191.254 152.05 190.244C153.061 189.233 153.629 187.863 153.629 186.434V110.994C153.629 109.565 153.061 108.194 152.05 107.184C151.04 106.173 149.669 105.605 148.24 105.605Z" fill="white"/>
<ellipse cx="123.195" cy="188.242" rx="30.457" ry="26.1523" fill="white"/>
</svg>
